<svg t="1660379815969" class="icon" viewBox="0 0 1024 1024" version="1.1" xmlns="http://www.w3.org/2000/svg" p-id="4786" width="200" height="200"><path d="M349.325 179.609h-19.682c-82.794 0-150.152 67.358-150.152 150.152v19.682c0 82.794 67.358 150.152 150.152 150.152h19.682c82.794 0 150.152-67.358 150.152-150.152v-19.682c0.001-82.794-67.357-150.152-150.152-150.152z m110.153 169.834c0 60.738-49.414 110.152-110.152 110.152h-19.682c-60.738 0-110.152-49.414-110.152-110.152v-19.682c0-60.738 49.414-110.152 110.152-110.152h19.682c60.738 0 110.152 49.414 110.152 110.152v19.682zM349.325 524.405h-19.682c-82.794 0-150.152 67.358-150.152 150.152v19.682c0 82.794 67.358 150.152 150.152 150.152h19.682c82.794 0 150.152-67.358 150.152-150.152v-19.682c0.001-82.793-67.357-150.152-150.152-150.152z m110.153 169.834c0 60.738-49.414 110.152-110.152 110.152h-19.682c-60.738 0-110.152-49.414-110.152-110.152v-19.682c0-60.738 49.414-110.152 110.152-110.152h19.682c60.738 0 110.152 49.414 110.152 110.152v19.682zM578.868 452.557c28.22 28.22 65.739 43.761 105.647 43.761s77.428-15.541 105.647-43.761l7.308-7.308c58.254-58.254 58.254-153.041 0-211.294l-7.308-7.308c-28.22-28.219-65.739-43.76-105.647-43.76s-77.428 15.541-105.647 43.76l-7.307 7.308c-28.22 28.219-43.762 65.739-43.762 105.647s15.542 77.428 43.761 105.647l7.308 7.308z m20.978-190.318l7.307-7.308c20.665-20.664 48.14-32.044 77.363-32.044s56.698 11.38 77.363 32.044l7.308 7.308c42.657 42.658 42.657 112.068 0 154.726l-7.308 7.308c-20.665 20.665-48.14 32.045-77.363 32.045s-56.698-11.38-77.362-32.045l-7.308-7.308C579.181 396.3 567.8 368.826 567.8 339.602c0-29.224 11.381-56.699 32.046-77.363zM694.356 524.405h-19.682c-82.794 0-150.152 67.358-150.152 150.152v19.682c0 82.794 67.358 150.152 150.152 150.152h19.682c82.794 0 150.152-67.358 150.152-150.152v-19.682c0.001-82.793-67.358-150.152-150.152-150.152z m110.153 169.834c0 60.738-49.414 110.152-110.152 110.152h-19.682c-60.738 0-110.152-49.414-110.152-110.152v-19.682c0-60.738 49.414-110.152 110.152-110.152h19.682c60.738 0 110.152 49.414 110.152 110.152v19.682z" p-id="4787" fill="#ff0000"></path></svg>